<svg width="40" height="22" viewBox="0 0 40 22" fill="none" xmlns="http://www.w3.org/2000/svg">
<path d="M13.9111 5.90683L7.61136 5.90683L7.2617 6.57998L13.5258 6.57998L10.788 11.3623H4.77758L4.42792 12.0355H10.4027L7.88134 16.4399H2.11147L3.6632 13.4568V12.0355H3.68174V11.3623H3.6632V6.57998H3.68174V5.90683H3.6632V5.5489H3.68174V4.21953H8.46824L10.2344 0.824219H16.8207L13.9111 5.90683Z" fill="white"/>
<path d="M17.5964 0.824219L14.6868 5.90683H20.1568L23.0664 0.824219H17.5964Z" fill="white"/>
<path d="M23.842 0.824219L20.9324 5.90683L26.8217 5.90683L28.1227 3.36828L36.9616 21.1767H40.3524L29.7655 0.824219H23.842Z" fill="white"/>
<path d="M26.4767 6.57998L20.5471 6.57998L17.8094 11.3623H24.0258L26.4767 6.57998Z" fill="white"/>
<path d="M23.6808 12.0355H17.424L14.9027 16.4399H21.4236L23.6808 12.0355Z" fill="white"/>
<path d="M21.0786 17.113H14.5173L12.191 21.1767H18.996L21.0786 17.113Z" fill="white"/>
<path d="M11.4153 21.1767L13.7417 17.113H8.27163L5.94531 21.1767H11.4153Z" fill="white"/>
<path d="M5.16967 21.1767L7.49599 17.113H1.76131L-0.352539 21.1767H5.16967Z" fill="white"/>
<path d="M14.3014 6.57998H19.7714L17.0337 11.3623H11.5637L14.3014 6.57998Z" fill="white"/>
<path d="M11.1783 12.0355L8.65699 16.4399H14.127L16.6484 12.0355H11.1783Z" fill="white"/>
<path d="M24.8872 13.472H27.855V16.4398H24.8872V13.472Z" fill="white"/>
<path d="M24.8872 17.1819H27.855V20.1497H24.8872V17.1819Z" fill="white"/>
<path d="M31.5645 13.472H28.5967V16.4398H31.5645V13.472Z" fill="white"/>
<path d="M28.5967 17.1819H31.5645V20.1497H28.5967V17.1819Z" fill="white"/>
</svg>
